<mxfile host="app.diagrams.net" modified="2023-08-22T11:27:20.435Z" agent="Mozilla/5.0 (Macintosh; Intel Mac OS X 10_15_7) AppleWebKit/537.36 (KHTML, like Gecko) Chrome/115.0.0.0 Safari/537.36" version="21.6.5" etag="0ryUfshnFsVRF7YFEivf" type="github">
  <diagram name="第 1 页" id="L6cLdl7zsMwOdGH1w8ju">
    <mxGraphModel>
      <root>
        <mxCell id="0" />
        <mxCell id="1" parent="0" />
      </root>
    </mxGraphModel>
  </diagram>
</mxfile>
